<svg xmlns="http://www.w3.org/2000/svg" width="11" height="23" viewBox="0 0 11 23"><defs><style>.cls-1{fill:#525558;fill-rule:evenodd;opacity:.5}</style></defs><path id="Rounded_Rectangle_4_copy_4" data-name="Rounded Rectangle 4 copy 4" class="cls-1" d="M9.009 11.5a.617.617 0 0 1-.009.086.661.661 0 0 1-.2.418l-5.263 8.641a.808.808 0 0 1-1.05.258.674.674 0 0 1-.281-.963l5.145-8.44-5.145-8.44a.674.674 0 0 1 .281-.96.807.807 0 0 1 1.05.258L8.805 11a.661.661 0 0 1 .2.418.62.62 0 0 1 .004.082z"/></svg>