<svg xmlns="http://www.w3.org/2000/svg" width="11" height="23" viewBox="0 0 11 23"><defs><style>.cls-1{fill:#525558;fill-rule:evenodd;opacity:.5}</style></defs><path id="Rounded_Rectangle_4_copy_4" data-name="Rounded Rectangle 4 copy 4" class="cls-1" d="M1.991 11.5A.617.617 0 0 1 2 11.415.661.661 0 0 1 2.195 11l5.268-8.645a.808.808 0 0 1 1.05-.255.674.674 0 0 1 .281.963L3.649 11.5l5.145 8.44a.674.674 0 0 1-.281.963.808.808 0 0 1-1.05-.258L2.195 12A.661.661 0 0 1 2 11.586a.62.62 0 0 1-.009-.086z"/></svg>