<svg xmlns="http://www.w3.org/2000/svg" width="17" height="16" viewBox="0 0 17 16"><defs><style>.cls-1{fill:#fff;fill-rule:evenodd}</style></defs><path id="Shape_1_копия" data-name="Shape 1 копия" class="cls-1" d="M10.051 11.6a.987.987 0 0 0 1.189-.11c.346-.345 1.383-1.574 1.383-1.574a.64.64 0 0 1 .835-.067c.5.312 1.417.968 3.332 2.163a.633.633 0 0 1 .168.656 9.861 9.861 0 0 1-3.441 3.206 2.665 2.665 0 0 1-1.569-.017S3.125 13.891.088 4.937a2.174 2.174 0 0 1-.017-1.122S.335 2.218 2.762.162a.665.665 0 0 1 .813-.017 33.123 33.123 0 0 1 2.666 3.266.576.576 0 0 1-.09.684 7.677 7.677 0 0 0-1.643 1.829.874.874 0 0 0 .124.707 15.574 15.574 0 0 0 5.419 4.969z"/></svg>